<svg id="Layer_1" data-name="Layer 1" xmlns="http://www.w3.org/2000/svg" viewBox="0 0 577.75 167.99"><path d="M52.25,125.5A66.08,66.08,0,0,1,47.19,136a31.39,31.39,0,0,1-6.64,7.85,26.26,26.26,0,0,1-9.06,4.91,40.65,40.65,0,0,1-12.31,1.66A59.23,59.23,0,0,1,12,150a43.14,43.14,0,0,1-6.42-1.21l2.72-20.84a27.23,27.23,0,0,0,4,1,23.87,23.87,0,0,0,4,.38q5.73,0,8.31-2.64A21.48,21.48,0,0,0,29,119.15L31.41,113,0,39H27.49L44.25,87.29h.45L59.65,39H85.93Z" fill="#fff"/><path d="M96.65,63.58V45.15h80V63.58Zm0,27.94V73.09h80V91.52Z" fill="#fff"/><path d="M197.53,114.17V0h25.22V114.17Z" fill="#fff"/><path d="M322.57,76.26A40.7,40.7,0,0,1,319.25,93a37.58,37.58,0,0,1-9.06,12.69,41.58,41.58,0,0,1-13.29,8.08,46.73,46.73,0,0,1-32.25,0,40.52,40.52,0,0,1-13.29-8.08,37.94,37.94,0,0,1-9-12.69,40.54,40.54,0,0,1-3.32-16.69,40.06,40.06,0,0,1,3.32-16.61,37.28,37.28,0,0,1,9-12.53,39.35,39.35,0,0,1,13.29-7.86,49.33,49.33,0,0,1,32.25,0,40.34,40.34,0,0,1,13.29,7.86,36.94,36.94,0,0,1,9.06,12.53A40.22,40.22,0,0,1,322.57,76.26Zm-23.86,0a21.3,21.3,0,0,0-1.21-7.09A18.8,18.8,0,0,0,294,63.05a17.63,17.63,0,0,0-5.59-4.3,18.59,18.59,0,0,0-15.4,0,16.7,16.7,0,0,0-5.52,4.3,18.47,18.47,0,0,0-3.32,6.12,22.84,22.84,0,0,0,0,14.19,19.47,19.47,0,0,0,3.4,6.27,16.61,16.61,0,0,0,5.59,4.45,18.59,18.59,0,0,0,15.4,0,16.7,16.7,0,0,0,5.59-4.45,19.47,19.47,0,0,0,3.4-6.27A22.87,22.87,0,0,0,298.71,76.26Z" fill="#fff"/><path d="M418.62,107.07a52.68,52.68,0,0,1-3.18,19.18,36,36,0,0,1-8.91,13.52,36.41,36.41,0,0,1-14,8,59.29,59.29,0,0,1-18.19,2.64,73.61,73.61,0,0,1-20.47-3,55.83,55.83,0,0,1-18.19-8.76L348.09,121a36.27,36.27,0,0,0,12,7.17A38.31,38.31,0,0,0,373,130.48q10.88,0,16.08-5.74t5.21-15.25V105h-.45a24.52,24.52,0,0,1-9.37,7.25A31.72,31.72,0,0,1,371,114.92a35.81,35.81,0,0,1-15.25-3.09,33.44,33.44,0,0,1-11.25-8.38,36.76,36.76,0,0,1-7-12.31,45.43,45.43,0,0,1-2.42-14.88,46.15,46.15,0,0,1,2.42-15,38.19,38.19,0,0,1,7-12.53,33.59,33.59,0,0,1,26.35-11.93,33.32,33.32,0,0,1,13.59,2.87,23.55,23.55,0,0,1,10.43,8.91h.3V39h23.41Zm-23.56-31a20.71,20.71,0,0,0-1.29-7.25,18.36,18.36,0,0,0-3.7-6.11,17.36,17.36,0,0,0-5.74-4.15,18,18,0,0,0-7.55-1.52,17.45,17.45,0,0,0-7.47,1.52,16.42,16.42,0,0,0-5.51,4.07,18.14,18.14,0,0,0-3.48,6,22.56,22.56,0,0,0-1.21,7.4,22,22,0,0,0,1.21,7.25,18.82,18.82,0,0,0,3.48,6.12,16.47,16.47,0,0,0,13,5.81,17.66,17.66,0,0,0,17-11.78A21.05,21.05,0,0,0,395.06,76.11Z" fill="#fff"/><path d="M548.6,114.17,532.44,91.06l-16.61,23.11h-28.7l30.06-39.42L490,39h28.85l14,20.09L547.09,39H575L548,74.75l29.76,39.42Z" fill="#fff"/><path d="M480.81,160.12a25.38,25.38,0,0,0,4.53-8.22,30.78,30.78,0,0,0,1.54-9.67,29.1,29.1,0,0,0-1.6-9.64,25.2,25.2,0,0,0-4.57-8.11A21.37,21.37,0,0,0,464,116.85a18.72,18.72,0,0,0-9.15,2.07,24.24,24.24,0,0,0-4.11,2.83l-.42.36v-25h-18v69.09h16.8V162l.43.46a16.28,16.28,0,0,0,5,3.55,22.71,22.71,0,0,0,19-.15A22.55,22.55,0,0,0,480.81,160.12Zm-12.95-14.05a9.52,9.52,0,0,1-1.78,3.29,8.84,8.84,0,0,1-2.93,2.29,9,9,0,0,1-4,.86,8.72,8.72,0,0,1-3.94-.86,9.42,9.42,0,0,1-3-2.3,10.6,10.6,0,0,1-1.92-3.27,10.82,10.82,0,0,1-.68-3.76,10.68,10.68,0,0,1,.69-3.76,10.38,10.38,0,0,1,1.91-3.27,9.53,9.53,0,0,1,3-2.3,8.75,8.75,0,0,1,3.94-.86,9,9,0,0,1,4,.86,9.13,9.13,0,0,1,4.71,5.46,12.27,12.27,0,0,1,.61,3.79A12.67,12.67,0,0,1,467.86,146.07Z" fill="#fff"/></svg>