<svg xmlns="http://www.w3.org/2000/svg" xmlns:xlink="http://www.w3.org/1999/xlink" width="400" height="220" viewBox="0 0 400 220">
  <defs>
    <clipPath id="clip-Artboard_65">
      <rect width="400" height="220"/>
    </clipPath>
  </defs>
  <g id="Artboard_65" data-name="Artboard – 65" clip-path="url(#clip-Artboard_65)">
    <rect width="400" height="220" fill="rgba(255,255,255,0)"/>
    <path id="Path_264" data-name="Path 264" d="M21.174-33.161,74.936-88.286a10.938,10.938,0,0,1,8.039-3.589,10.94,10.94,0,0,1,8.111,3.661l53.761,55.053a9.473,9.473,0,0,1,2.871,6.962,10.017,10.017,0,0,1-9.977,10.049,9.945,9.945,0,0,1-7.321-3.158L83.046-68.117,35.6-19.308A10.224,10.224,0,0,1,28.28-16.15,10.017,10.017,0,0,1,18.3-26.2,9.591,9.591,0,0,1,21.174-33.161Z" transform="translate(116.696 163.875)" fill="#1d1d1d"/>
  </g>
</svg>
