<?xml version="1.0" encoding="utf-8"?>
<!-- Generator: Adobe Illustrator 24.2.3, SVG Export Plug-In . SVG Version: 6.00 Build 0)  -->
<svg version="1.1" id="Layer_1" xmlns="http://www.w3.org/2000/svg" xmlns:xlink="http://www.w3.org/1999/xlink" x="0px" y="0px"
	 viewBox="0 0 3300 2200" style="enable-background:new 0 0 3300 2200;" xml:space="preserve">
<style type="text/css">
	.st0{fill:#FFFFFF;}
	.st1{fill:none;stroke:#000000;stroke-width:0.5;}
	.st2{enable-background:new    ;}
	.st3{font-family:'MyriadPro-Regular';}
	.st4{font-size:12px;}
	.st5{font-family:'ArialHebrew-Bold';}
	.st6{font-family:'ArialHebrew';}
	.st7{fill:none;stroke:#00AEEF;stroke-width:0.5;}
	.st8{fill:#27AAE1;}
	.st9{fill:none;stroke:#27AAE1;stroke-width:0.5;}
</style>
<g id="Notes">
	<rect id="artboard" class="st0" width="3300" height="2200"/>
	<line class="st1" x1="263" y1="292" x2="3036" y2="292"/>
	<text transform="matrix(1 0 0 1 263 322)" class="st2"><tspan x="0" y="0" class="st3 st4">Weight</tspan><tspan x="36.3" y="0" class="st5 st4">/</tspan><tspan x="40.2" y="0" class="st3 st4">Scale</tspan><tspan x="66.1" y="0" class="st5 st4"> </tspan><tspan x="69.5" y="0" class="st3 st4">Variations</tspan></text>
	<text transform="matrix(1 0 0 1 514.711 322)" class="st3 st4">Ultralight</text>
	<text transform="matrix(1 0 0 1 838.422 322)" class="st3 st4">Thin</text>
	<text transform="matrix(1 0 0 1 1130.63 322)" class="st3 st4">Light</text>
	<text transform="matrix(1 0 0 1 1418.34 322)" class="st3 st4">Regular</text>
	<text transform="matrix(1 0 0 1 1719.5601 322)" class="st3 st4">Medium</text>
	<text transform="matrix(1 0 0 1 2007.27 322)" class="st3 st4">Semibold</text>
	<text transform="matrix(1 0 0 1 2321.98 322)" class="st3 st4">Bold</text>
	<text transform="matrix(1 0 0 1 2614.1899 322)" class="st3 st4">Heavy</text>
	<text transform="matrix(1 0 0 1 2910.8999 322)" class="st3 st4">Black</text>
	<line class="st1" x1="263" y1="1903" x2="3036" y2="1903"/>
	<g transform="matrix(1 0 0 1 263 1933)">
		<path d="M9.2,0.8c4.3,0,7.9-3.6,7.9-7.9c0-4.3-3.6-7.9-7.9-7.9c-4.3,0-7.9,3.6-7.9,7.9C1.4-2.7,5,0.8,9.2,0.8z M9.2-0.7
			c-3.5,0-6.4-2.8-6.4-6.4c0-3.6,2.8-6.4,6.4-6.4c3.6,0,6.4,2.8,6.4,6.4C15.7-3.5,12.8-0.7,9.2-0.7z M9.2-3.6c0.5,0,0.7-0.3,0.7-0.8
			v-1.9h2c0.5,0,0.8-0.3,0.8-0.7c0-0.5-0.3-0.7-0.8-0.7h-2v-2c0-0.5-0.3-0.8-0.7-0.8s-0.7,0.3-0.7,0.8v2h-2C6-7.8,5.6-7.5,5.6-7
			c0,0.5,0.4,0.7,0.8,0.7h2v1.9C8.5-4,8.8-3.6,9.2-3.6z"/>
	</g>
	<g transform="matrix(1 0 0 1 281.506 1933)">
		<path d="M11.7,2.9c5.4,0,10-4.5,10-10c0-5.4-4.5-10-10-10c-5.4,0-10,4.5-10,10C1.7-1.6,6.3,2.9,11.7,2.9z M11.7,1.2
			c-4.6,0-8.3-3.7-8.3-8.3c0-4.6,3.7-8.3,8.3-8.3c4.6,0,8.3,3.7,8.3,8.3C20-2.4,16.3,1.2,11.7,1.2z M11.7-2.7c0.5,0,0.8-0.4,0.8-0.9
			v-2.6h2.8c0.5,0,0.9-0.3,0.9-0.8c0-0.5-0.4-0.8-0.9-0.8h-2.8v-2.8c0-0.6-0.3-0.9-0.8-0.9c-0.5,0-0.8,0.4-0.8,0.9v2.8H8.1
			C7.5-7.9,7.1-7.6,7.1-7c0,0.5,0.4,0.8,0.9,0.8h2.8v2.6C10.9-3,11.2-2.7,11.7-2.7z"/>
	</g>
	<g transform="matrix(1 0 0 1 304.924 1933)">
		<path d="M15,5.7c7,0,12.7-5.8,12.7-12.7c0-7-5.8-12.7-12.7-12.7C8-19.8,2.3-14,2.3-7.1C2.3-0.1,8,5.7,15,5.7z M15,3.8
			C8.9,3.8,4.1-1,4.1-7.1c0-6,4.8-10.9,10.9-10.9c6,0,10.9,4.9,10.9,10.9C25.9-1,21,3.8,15,3.8z M14.9-1.4c0.6,0,0.9-0.4,0.9-1v-3.8
			h3.9c0.6,0,1-0.3,1-0.9c0-0.6-0.4-0.9-1-0.9h-3.9v-3.9c0-0.6-0.3-1-0.9-1c-0.6,0-0.9,0.4-0.9,1v3.9h-3.9c-0.6,0-1,0.3-1,0.9
			c0,0.6,0.4,0.9,1,0.9h3.9v3.8C14.1-1.8,14.4-1.4,14.9-1.4z"/>
	</g>
	<text transform="matrix(1 0 0 1 263 1953)" class="st2"><tspan x="0" y="0" class="st3 st4">Design</tspan><tspan x="34.9" y="0" class="st5 st4"> </tspan><tspan x="38.3" y="0" class="st3 st4">Variations</tspan></text>
	<text transform="matrix(1 0 0 1 263 1971)" class="st2"><tspan x="0" y="0" class="st3 st4">Symbols</tspan><tspan x="42.6" y="0" class="st6 st4"> </tspan><tspan x="45.9" y="0" class="st3 st4">are</tspan><tspan x="61.6" y="0" class="st6 st4"> </tspan><tspan x="65" y="0" class="st3 st4">supported</tspan><tspan x="117.3" y="0" class="st6 st4"> </tspan><tspan x="120.6" y="0" class="st3 st4">in</tspan><tspan x="130.1" y="0" class="st6 st4"> </tspan><tspan x="133.4" y="0" class="st3 st4">up</tspan><tspan x="146.8" y="0" class="st6 st4"> </tspan><tspan x="150.2" y="0" class="st3 st4">to</tspan><tspan x="160.7" y="0" class="st6 st4"> </tspan><tspan x="164.1" y="0" class="st3 st4">nine</tspan><tspan x="186.2" y="0" class="st6 st4"> </tspan><tspan x="189.5" y="0" class="st3 st4">weights</tspan><tspan x="229.3" y="0" class="st6 st4"> </tspan><tspan x="232.6" y="0" class="st3 st4">and</tspan><tspan x="251.8" y="0" class="st6 st4"> </tspan><tspan x="255.2" y="0" class="st3 st4">three</tspan><tspan x="281.7" y="0" class="st6 st4"> </tspan><tspan x="285.1" y="0" class="st3 st4">scales</tspan><tspan x="314.6" y="0" class="st6 st4">.</tspan></text>
	<text transform="matrix(1 0 0 1 263 1989)" class="st2"><tspan x="0" y="0" class="st3 st4">For</tspan><tspan x="16.4" y="0" class="st6 st4"> </tspan><tspan x="19.7" y="0" class="st3 st4">optimal</tspan><tspan x="58.5" y="0" class="st6 st4"> </tspan><tspan x="61.8" y="0" class="st3 st4">layout</tspan><tspan x="93.3" y="0" class="st6 st4"> </tspan><tspan x="96.6" y="0" class="st3 st4">with</tspan><tspan x="118.9" y="0" class="st6 st4"> </tspan><tspan x="122.2" y="0" class="st3 st4">text</tspan><tspan x="141.7" y="0" class="st6 st4"> </tspan><tspan x="145.1" y="0" class="st3 st4">and</tspan><tspan x="164.3" y="0" class="st6 st4"> </tspan><tspan x="167.6" y="0" class="st3 st4">other</tspan><tspan x="194.8" y="0" class="st6 st4"> </tspan><tspan x="198.1" y="0" class="st3 st4">symbols</tspan><tspan x="239.5" y="0" class="st6 st4">, </tspan><tspan x="245.4" y="0" class="st3 st4">vertically</tspan><tspan x="290.4" y="0" class="st6 st4"> </tspan><tspan x="293.7" y="0" class="st3 st4">align</tspan></text>
	<text transform="matrix(1 0 0 1 263 2007)" class="st2"><tspan x="0" y="0" class="st3 st4">symbols</tspan><tspan x="41.4" y="0" class="st6 st4"> </tspan><tspan x="44.7" y="0" class="st3 st4">with</tspan><tspan x="67" y="0" class="st6 st4"> </tspan><tspan x="70.4" y="0" class="st3 st4">the</tspan><tspan x="87" y="0" class="st6 st4"> </tspan><tspan x="90.3" y="0" class="st3 st4">adjacent</tspan><tspan x="133.6" y="0" class="st6 st4"> </tspan><tspan x="136.9" y="0" class="st3 st4">text</tspan><tspan x="156.5" y="0" class="st6 st4">.</tspan></text>
	<line class="st7" x1="776" y1="1919" x2="776" y2="1933"/>
	<g transform="matrix(1 0 0 1 776 1933)">
		<path d="M3.3,0.1c0.5,0,0.8-0.2,1-0.7l1.3-3.5h5.8l1.3,3.5c0.2,0.5,0.4,0.7,0.9,0.7c0.5,0,0.8-0.3,0.8-0.8c0-0.2,0-0.3-0.1-0.5
			L9.7-13.4C9.4-14,9-14.3,8.4-14.3c-0.6,0-1,0.3-1.2,0.9L2.6-1.2C2.5-1,2.5-0.8,2.5-0.7C2.5-0.2,2.8,0.1,3.3,0.1z M6-5.5l2.4-6.6h0
			l2.4,6.6H6z"/>
	</g>
	<line class="st7" x1="792.8" y1="1919" x2="792.8" y2="1933"/>
	<text transform="matrix(1 0 0 1 776 1953)" class="st3 st4">Margins</text>
	<text transform="matrix(1 0 0 1 776 1971)" class="st2"><tspan x="0" y="0" class="st3 st4">Leading</tspan><tspan x="40.4" y="0" class="st6 st4"> </tspan><tspan x="43.7" y="0" class="st3 st4">and</tspan><tspan x="63" y="0" class="st6 st4"> </tspan><tspan x="66.3" y="0" class="st3 st4">trailing</tspan><tspan x="101.8" y="0" class="st6 st4"> </tspan><tspan x="105.1" y="0" class="st3 st4">margins</tspan><tspan x="145.8" y="0" class="st6 st4"> </tspan><tspan x="149.1" y="0" class="st3 st4">on</tspan><tspan x="162.3" y="0" class="st6 st4"> </tspan><tspan x="165.7" y="0" class="st3 st4">the</tspan><tspan x="182.3" y="0" class="st6 st4"> </tspan><tspan x="185.7" y="0" class="st3 st4">left</tspan><tspan x="202" y="0" class="st6 st4"> </tspan><tspan x="205.3" y="0" class="st3 st4">and</tspan><tspan x="224.5" y="0" class="st6 st4"> </tspan><tspan x="227.9" y="0" class="st3 st4">right</tspan><tspan x="251.9" y="0" class="st6 st4"> </tspan><tspan x="255.3" y="0" class="st3 st4">side</tspan><tspan x="275.6" y="0" class="st6 st4"> </tspan><tspan x="278.9" y="0" class="st3 st4">of</tspan><tspan x="289" y="0" class="st6 st4"> </tspan><tspan x="292.4" y="0" class="st3 st4">each</tspan><tspan x="316.2" y="0" class="st6 st4"> </tspan><tspan x="319.5" y="0" class="st3 st4">symbol</tspan></text>
	<text transform="matrix(1 0 0 1 776 1989)" class="st2"><tspan x="0" y="0" class="st3 st4">can</tspan><tspan x="17.8" y="0" class="st6 st4"> </tspan><tspan x="21.2" y="0" class="st3 st4">be</tspan><tspan x="34" y="0" class="st6 st4"> </tspan><tspan x="37.3" y="0" class="st3 st4">adjusted</tspan><tspan x="80.9" y="0" class="st6 st4"> </tspan><tspan x="84.3" y="0" class="st3 st4">by</tspan><tspan x="96.7" y="0" class="st6 st4"> </tspan><tspan x="100.1" y="0" class="st3 st4">modifying</tspan><tspan x="151.6" y="0" class="st6 st4"> </tspan><tspan x="154.9" y="0" class="st3 st4">the</tspan><tspan x="171.5" y="0" class="st6 st4"> </tspan><tspan x="174.9" y="0" class="st3 st4">x</tspan><tspan x="180.4" y="0" class="st6 st4">-</tspan><tspan x="184.6" y="0" class="st3 st4">location</tspan><tspan x="225.2" y="0" class="st6 st4"> </tspan><tspan x="228.6" y="0" class="st3 st4">of</tspan><tspan x="238.7" y="0" class="st6 st4"> </tspan><tspan x="242" y="0" class="st3 st4">the</tspan><tspan x="258.6" y="0" class="st6 st4"> </tspan><tspan x="262" y="0" class="st3 st4">margin</tspan><tspan x="297.9" y="0" class="st6 st4"> </tspan><tspan x="301.2" y="0" class="st3 st4">guidelines</tspan><tspan x="353.2" y="0" class="st6 st4">.</tspan></text>
	<text transform="matrix(1 0 0 1 776 2007)" class="st2"><tspan x="0" y="0" class="st3 st4">Modifications</tspan><tspan x="68" y="0" class="st6 st4"> </tspan><tspan x="71.4" y="0" class="st3 st4">are</tspan><tspan x="87.1" y="0" class="st6 st4"> </tspan><tspan x="90.4" y="0" class="st3 st4">automatically</tspan><tspan x="158.4" y="0" class="st6 st4"> </tspan><tspan x="161.8" y="0" class="st3 st4">applied</tspan><tspan x="199.6" y="0" class="st6 st4"> </tspan><tspan x="203" y="0" class="st3 st4">proportionally</tspan><tspan x="274.8" y="0" class="st6 st4"> </tspan><tspan x="278.1" y="0" class="st3 st4">to</tspan><tspan x="288.7" y="0" class="st6 st4"> </tspan><tspan x="292" y="0" class="st3 st4">all</tspan></text>
	<text transform="matrix(1 0 0 1 776 2025)" class="st2"><tspan x="0" y="0" class="st3 st4">scales</tspan><tspan x="29.5" y="0" class="st6 st4"> </tspan><tspan x="32.8" y="0" class="st3 st4">and</tspan><tspan x="52.1" y="0" class="st6 st4"> </tspan><tspan x="55.4" y="0" class="st3 st4">weights</tspan><tspan x="95.1" y="0" class="st6 st4">.</tspan></text>
	<g transform="matrix(1 0 0 1 1289 1933)">
		<path d="M2.8,1.9l1.7,1.7c0.9,0.9,1.8,0.8,2.8-0.2L17.5-7.9c0.3,0.1,0.5,0.1,0.8,0L19.4-8l0.7,0.7l0,0.6c0,0.5,0.1,0.9,0.6,1.4
			l0.8,0.7c0.5,0.5,1.1,0.5,1.6,0l2.9-2.9c0.5-0.5,0.4-1.1,0-1.5L25-9.9c-0.5-0.5-0.8-0.6-1.3-0.6l-0.6,0l-0.6-0.6l0.2-1.1
			c0.1-0.6,0-1-0.6-1.6L19.9-16c-3.3-3.3-7.8-3.2-10.7-0.4c-0.4,0.4-0.4,1-0.2,1.4c0.2,0.4,0.7,0.6,1.3,0.4c1.5-0.3,3-0.4,4.4,0.5
			l-0.6,1.5c-0.2,0.5-0.2,0.9-0.1,1.2L3-0.9C2.1,0,2,1,2.8,1.9z M10.8-16c2.4-1.8,5.7-1.5,7.9,0.8l2.4,2.4c0.2,0.2,0.3,0.4,0.2,0.8
			L21-10.5l1.5,1.5l1-0.1c0.3,0,0.3,0,0.5,0.2l0.6,0.6l-2.4,2.4l-0.6-0.6c-0.2-0.2-0.2-0.3-0.2-0.5l0.1-1L20-9.5l-1.5,0.3
			c-0.3,0.1-0.5,0-0.7-0.2l-2-2c-0.3-0.2-0.3-0.4-0.1-0.8l0.9-2.1c-1.6-1.5-3.6-2.1-5.6-1.5C10.7-15.7,10.6-15.8,10.8-16z M5.3,2.3
			L4.1,1.1C3.6,0.7,3.7,0.3,4.1,0L15-10.2l1.5,1.5l-10,11C6.1,2.7,5.7,2.8,5.3,2.3z"/>
	</g>
	<text transform="matrix(1 0 0 1 1289 1953)" class="st3 st4">Exporting</text>
	<text transform="matrix(1 0 0 1 1289 1971)" class="st2"><tspan x="0" y="0" class="st3 st4">Symbols</tspan><tspan x="42.6" y="0" class="st6 st4"> </tspan><tspan x="45.9" y="0" class="st3 st4">should</tspan><tspan x="80.1" y="0" class="st6 st4"> </tspan><tspan x="83.5" y="0" class="st3 st4">be</tspan><tspan x="96.3" y="0" class="st6 st4"> </tspan><tspan x="99.6" y="0" class="st3 st4">outlined</tspan><tspan x="141.9" y="0" class="st6 st4"> </tspan><tspan x="145.2" y="0" class="st3 st4">when</tspan><tspan x="173.4" y="0" class="st6 st4"> </tspan><tspan x="176.7" y="0" class="st3 st4">exporting</tspan><tspan x="225.8" y="0" class="st6 st4"> </tspan><tspan x="229.1" y="0" class="st3 st4">to</tspan><tspan x="239.7" y="0" class="st6 st4"> </tspan><tspan x="243" y="0" class="st3 st4">ensure</tspan><tspan x="277" y="0" class="st6 st4"> </tspan><tspan x="280.3" y="0" class="st3 st4">the</tspan></text>
	<text transform="matrix(1 0 0 1 1289 1989)" class="st2"><tspan x="0" y="0" class="st3 st4">design</tspan><tspan x="33.7" y="0" class="st6 st4"> </tspan><tspan x="37" y="0" class="st3 st4">is</tspan><tspan x="44.6" y="0" class="st6 st4"> </tspan><tspan x="47.9" y="0" class="st3 st4">preserved</tspan><tspan x="97.9" y="0" class="st6 st4"> </tspan><tspan x="101.3" y="0" class="st3 st4">when</tspan><tspan x="129.4" y="0" class="st6 st4"> </tspan><tspan x="132.8" y="0" class="st3 st4">submitting</tspan><tspan x="187.9" y="0" class="st6 st4"> </tspan><tspan x="191.2" y="0" class="st3 st4">to</tspan><tspan x="201.8" y="0" class="st6 st4"> </tspan><tspan x="205.1" y="0" class="st3 st4">Xcode</tspan><tspan x="236.7" y="0" class="st6 st4">.</tspan></text>
	<text id="template-version" transform="matrix(1 0 0 1 2934.9604 1933)" class="st2"><tspan x="0" y="0" class="st3 st4">Template</tspan><tspan x="47.4" y="0" class="st6 st4"> </tspan><tspan x="50.7" y="0" class="st3 st4">v</tspan><tspan x="56.5" y="0" class="st6 st4">.2.0</tspan></text>
	<text transform="matrix(1 0 0 1 2812.9443 1951)" class="st2"><tspan x="0" y="0" class="st3 st4">Requires</tspan><tspan x="43.3" y="0" class="st6 st4"> </tspan><tspan x="46.7" y="0" class="st3 st4">Xcode</tspan><tspan x="78.3" y="0" class="st6 st4"> 12 </tspan><tspan x="96.6" y="0" class="st3 st4">or</tspan><tspan x="107.2" y="0" class="st6 st4"> </tspan><tspan x="110.5" y="0" class="st3 st4">greater</tspan></text>
	<text transform="matrix(1 0 0 1 2831.3281 1969)" class="st2"><tspan x="0" y="0" class="st3 st4">Generated</tspan><tspan x="52.9" y="0" class="st6 st4"> </tspan><tspan x="56.2" y="0" class="st3 st4">from</tspan><tspan x="80.3" y="0" class="st6 st4"> </tspan><tspan x="83.6" y="0" class="st3 st4">newspaper</tspan></text>
	<text transform="matrix(1 0 0 1 2873.4243 1987)" class="st2"><tspan x="0" y="0" class="st3 st4">Typeset</tspan><tspan x="39.2" y="0" class="st6 st4"> </tspan><tspan x="42.5" y="0" class="st3 st4">at</tspan><tspan x="52.3" y="0" class="st6 st4"> 100 </tspan><tspan x="76.5" y="0" class="st3 st4">points</tspan></text>
	<text transform="matrix(1 0 0 1 263 726)" class="st3 st4">Small</text>
	<text transform="matrix(1 0 0 1 263 1156)" class="st3 st4">Medium</text>
	<text transform="matrix(1 0 0 1 263 1586)" class="st3 st4">Large</text>
</g>
<g id="Guides">
	<g id="H-reference" transform="matrix(1 0 0 1 339 696)">
		<path class="st8" d="M1,0h2.7L13-24.5h32.7L55.1,0h2.6L30.6-70.5h-2.5L1,0z M29.3-67.1L29.3-67.1l15.6,40.4h-31L29.3-67.1z"/>
	</g>
	<line id="Baseline-S" class="st9" x1="263" y1="696" x2="3036" y2="696"/>
	<line id="Capline-S" class="st9" x1="263" y1="625.5" x2="3036" y2="625.5"/>
	<g id="H-reference_1_" transform="matrix(1 0 0 1 339 1126)">
		<path class="st8" d="M1,0h2.7L13-24.5h32.7L55.1,0h2.6L30.6-70.5h-2.5L1,0z M29.3-67.1L29.3-67.1l15.6,40.4h-31L29.3-67.1z"/>
	</g>
	<line id="Baseline-M" class="st9" x1="263" y1="1126" x2="3036" y2="1126"/>
	<line id="Capline-M" class="st9" x1="263" y1="1055.5" x2="3036" y2="1055.5"/>
	<g id="H-reference_2_" transform="matrix(1 0 0 1 339 1556)">
		<path class="st8" d="M1,0h2.7L13-24.5h32.7L55.1,0h2.6L30.6-70.5h-2.5L1,0z M29.3-67.1L29.3-67.1l15.6,40.4h-31L29.3-67.1z"/>
	</g>
	<line id="Baseline-L" class="st9" x1="263" y1="1556" x2="3036" y2="1556"/>
	<line id="Capline-L" class="st9" x1="263" y1="1485.5" x2="3036" y2="1485.5"/>
	<line id="left-margin" class="st7" x1="1380.9" y1="1030.8" x2="1380.9" y2="1150.1"/>
	<line id="right-margin" class="st7" x1="1518.8" y1="1030.8" x2="1518.8" y2="1150.1"/>
</g>
<g id="Symbols">
	<g id="Black-L" transform="matrix(1 0 0 1 2837.48 1556)">
		<path d="M175.8-81.7c0-14.7-10.1-23.9-26.3-23.9H39.9c-15.2,0-23.9,8.6-23.9,23.8v93.3c0,15.2,8.6,23.8,23.9,23.8h79.6
			c15.3,0,23.9-8.6,23.9-23.8v-21.5h10.3c13.8,0,22-8.1,22-21.7V-81.7z M123.9-85.4c-0.4,1.2-0.7,2.3-0.7,3.9V8.5
			c0,4.3-1.9,6.4-6.4,6.4H42.7c-4.4,0-6.4-2.1-6.4-6.4V-79c0-4.3,2-6.4,6.4-6.4H123.9z M155.5-79.1v43.9c0,2.9-1.9,4.9-4.8,4.9h-7.2
			v-48.8c0-3.8,2.5-6.3,6-6.3S155.5-82.8,155.5-79.1z"/>
	</g>
	<g id="Heavy-L" transform="matrix(1 0 0 1 2542.65 1556)">
		<path d="M172-82.4c0-14-9.1-22.5-24.3-22.5H38.8c-14.6,0-22.8,8.1-22.8,22.6v94.1c0,14.6,8.1,22.7,22.8,22.7h79.5
			c14.6,0,22.8-8.1,22.8-22.7V-12h11.3c12.4,0,19.6-7.2,19.6-19.2V-82.4z M124.7-87.4c-0.7,1.5-1.1,3.2-1.1,5.2V9.6
			c0,4.9-2.3,7.4-7.4,7.4H41c-5,0-7.4-2.5-7.4-7.4V-80c0-4.9,2.3-7.4,7.4-7.4H124.7z M154.5-80.4v46.3c0,2.8-1.8,4.6-4.6,4.6h-8.8
			v-50.9c0-4.1,2.8-7,6.7-7C151.7-87.4,154.5-84.5,154.5-80.4z"/>
	</g>
	<g id="Bold-L" transform="matrix(1 0 0 1 2248.06 1556)">
		<path d="M167.8-83.3c0-13.1-8-20.8-22-20.8H37.5c-14,0-21.5,7.5-21.5,21.3v95.1c0,13.8,7.5,21.3,21.5,21.3h79.2
			c14,0,21.5-7.5,21.5-21.3v-26.5h12.5c10.6,0,16.9-6.1,16.9-16.4V-83.3z M125.4-89.6c-1,1.9-1.6,4.1-1.6,6.7v93.6
			c0,5.7-2.8,8.5-8.5,8.5H39c-5.6,0-8.4-2.9-8.4-8.5v-91.8c0-5.7,2.8-8.5,8.4-8.5H125.4z M153.3-81.9V-33c0,2.7-1.7,4.4-4.5,4.4
			h-10.5v-53.3c0-4.5,3.2-7.7,7.5-7.7C150.1-89.6,153.3-86.3,153.3-81.9z"/>
	</g>
	<g id="Semibold-L" transform="matrix(1 0 0 1 1952.81 1556)">
		<path d="M164.8-83.8c0-12.5-7.2-19.7-20.5-19.7H36.7c-13.5,0-20.6,7-20.6,20.4v95.8c0,13.3,7.1,20.4,20.6,20.4h79.1
			c13.5,0,20.6-7.1,20.6-20.4v-28.3h13.4c9.5,0,15.1-5.4,15.1-14.5V-83.8z M125.9-91.2c-1.3,2.2-1.9,4.7-1.9,7.8v94.8
			c0,6.2-3.2,9.3-9.2,9.3H37.6c-6.1,0-9.2-3.1-9.2-9.3v-93.4c0-6.2,3.2-9.3,9.2-9.3H125.9z M152.5-82.9v50.7c0,2.6-1.7,4.2-4.3,4.2
			h-11.8v-54.9c0-4.8,3.5-8.3,8.1-8.3C149.1-91.2,152.5-87.6,152.5-82.9z"/>
	</g>
	<g id="Medium-L" transform="matrix(1 0 0 1 1657.22 1556)">
		<path d="M162.6-84.2c0-12.1-6.6-18.9-19.2-18.9H35.9c-13.1,0-19.9,6.7-19.9,19.7v96.3c0,13,6.8,19.7,19.9,19.7h79
			c13.1,0,19.9-6.7,19.9-19.7v-29.7h14c8.6,0,13.7-4.8,13.7-13V-84.2z M126.3-92.3c-1.5,2.4-2.2,5.2-2.2,8.6v95.8
			c0,6.5-3.4,9.9-9.8,9.9H36.6c-6.4,0-9.8-3.4-9.8-9.9v-94.5c0-6.5,3.4-9.9,9.8-9.9H126.3z M151.9-83.7v52.1c0,2.5-1.6,4.1-4.2,4.1
			h-12.7v-56.2c0-5.1,3.7-8.6,8.5-8.6C148.2-92.3,151.9-88.6,151.9-83.7z"/>
	</g>
	<g id="Regular-L" transform="matrix(1 0 0 1 1361.95 1556)">
		<path d="M159.7-84.7c0-11.6-5.9-17.8-17.7-17.8H35.1c-12.6,0-19,6.3-19,18.8v97c0,12.5,6.4,18.8,19,18.8H114
			c12.6,0,19-6.3,19-18.8v-31.5h14.8c7.5,0,11.9-4.1,11.9-11.1V-84.7z M126.9-93.8c-1.7,2.6-2.5,5.9-2.5,9.6v97
			c0,7-3.7,10.6-10.5,10.6H35.3c-6.8,0-10.5-3.6-10.5-10.6v-96c0-7,3.7-10.6,10.5-10.6H126.9z M151.1-84.7v53.9c0,2.5-1.6,4-4.1,4
			h-14v-57.9c0-5.3,3.9-9.1,9-9.1C147.2-93.8,151.1-89.9,151.1-84.7z"/>
	</g>
	<g id="Light-L" transform="matrix(1 0 0 1 1066.76 1556)">
		<path d="M156.7-86.2c0-10.2-5.3-16-16-16H34c-11.9,0-18,6.1-18,17.9v98.1c0,11.8,6.1,17.9,18,17.9h79.4c11.9,0,18-6.1,18-17.9
			v-33.4h14.6c6.7,0,10.7-3.7,10.7-10V-86.2z M127.7-95.6c-2,2.5-2.9,5.8-2.9,9.7v99.4c0,7.7-4,11.6-11.5,11.6H34.2
			c-7.5,0-11.5-4-11.5-11.6V-84c0-7.6,4.1-11.6,11.5-11.6H127.7z M150-86.1v55.5c0,2.7-1.7,4.4-4.6,4.4h-14v-59.9
			c0-5.6,3.9-9.4,9.3-9.4C146.1-95.6,150-91.6,150-86.1z"/>
	</g>
	<g id="Thin-L" transform="matrix(1 0 0 1 772.047 1556)">
		<path d="M152.7-88.1c0-8.3-4.6-13.7-13.6-13.7H32.7c-10.9,0-16.6,5.7-16.6,16.6v99.8c0,10.8,5.7,16.6,16.6,16.6h80.1
			c10.8,0,16.6-5.8,16.6-16.6v-36.1h14.1c5.8,0,9.2-3.2,9.2-8.6V-88.1z M129-97.9c-2.4,2.4-3.6,5.8-3.6,9.8V14.4
			c0,8.4-4.4,12.8-12.8,12.8H32.8c-8.4,0-12.8-4.4-12.8-12.8V-85c0-8.5,4.4-12.9,12.8-12.9H129z M148.8-88v57.5c0,3.1-2.1,5-5.4,5
			h-14.1V-88c0-5.9,3.9-9.9,9.7-9.9C144.8-97.9,148.8-93.8,148.8-88z"/>
	</g>
	<g id="Ultralight-L" transform="matrix(1 0 0 1 476.337 1556)">
		<path d="M150.7-89.1c0-7.3-4.2-12.5-12.5-12.5H32c-10.4,0-15.9,5.6-15.9,16V15c0,10.4,5.6,15.9,15.9,15.9h80.4
			c10.4,0,15.9-5.5,15.9-15.9v-37.5h13.9c5.3,0,8.4-2.9,8.4-7.9V-89.1z M129.6-99c-2.6,2.3-3.9,5.7-3.9,9.8v104
			c0,8.9-4.6,13.5-13.5,13.5H32.1c-8.9,0-13.5-4.6-13.5-13.5V-85.5c0-8.9,4.6-13.5,13.5-13.5H129.6z M148.1-88.9v58.6
			c0,3.3-2.1,5.3-5.7,5.3h-14.1v-63.9c0-6,4-10.1,9.9-10.1C144.2-99,148.1-95,148.1-88.9z"/>
	</g>
	<g id="Black-M" transform="matrix(1 0 0 1 2857.3 1126)">
		<path d="M139.7-71.1c0-11.7-8.9-19.5-22.2-19.5H32c-12.3,0-19.5,7.3-19.5,19.5V0.7c0,12.3,7.3,19.5,19.5,19.5h62.2
			c12.3,0,19.5-7.3,19.5-19.5v-14.6h6.3c12.4,0,19.7-7.3,19.7-19.7V-71.1z M95.6-72.3c-0.1,0.4-0.1,0.6-0.1,1.2v68.8
			c0,2.8-1.1,4.2-4.2,4.2H34.9c-3.1,0-4.2-1.3-4.2-4.2v-65.9c0-2.8,1.1-4.2,4.2-4.2H95.6z M121.4-68.2v31.7c0,2.6-1.7,4.2-4.2,4.2
			h-3.5v-36c0-2.5,1.6-4.2,3.9-4.2C119.9-72.3,121.4-70.7,121.4-68.2z"/>
	</g>
	<g id="Heavy-M" transform="matrix(1 0 0 1 2562.27 1126)">
		<path d="M136.4-71.5c0-11.2-7.9-18.4-20.4-18.4H31c-11.8,0-18.5,6.7-18.5,18.5V1c0,11.8,6.7,18.5,18.5,18.5h61.9
			c11.8,0,18.6-6.7,18.6-18.5v-16.6h7.6c10.9,0,17.3-6.4,17.3-17.2V-71.5z M96.1-74.1c-0.3,0.8-0.5,1.6-0.5,2.7v70c0,3.4-1.5,5-5,5
			H33.3c-3.5,0-5-1.7-5-5V-69c0-3.4,1.5-5,5-5H96.1z M120.6-69.2v33.9c0,2.3-1.6,3.9-4,3.9h-5.2v-37.8c0-2.9,1.9-4.8,4.5-4.8
			C118.7-74.1,120.6-72.1,120.6-69.2z"/>
	</g>
	<g id="Bold-M" transform="matrix(1 0 0 1 2267.44 1126)">
		<path d="M132.6-72c0-10.7-6.8-17.1-18.5-17.1H29.9c-11.2,0-17.4,6.2-17.4,17.3V1.3c0,11.1,6.2,17.3,17.4,17.3h61.5
			c11.2,0,17.4-6.2,17.4-17.3v-18.9h9c9.2,0,14.7-5.4,14.7-14.5V-72z M96.7-76c-0.6,1.2-0.9,2.6-0.9,4.3v71.3c0,4-1.9,6-5.9,6H31.4
			c-4,0-5.9-2-5.9-6v-69.7c0-4,1.9-5.9,5.9-5.9H96.7z M119.5-70.5v36.3c0,2.2-1.4,3.6-3.6,3.6h-7.1v-39.8c0-3.3,2.2-5.5,5.3-5.5
			C117.3-76,119.5-73.7,119.5-70.5z"/>
	</g>
	<g id="Semibold-M" transform="matrix(1 0 0 1 1972.03 1126)">
		<path d="M130-72.2c0-10.4-6.1-16.3-17.1-16.3H29.1c-10.8,0-16.7,5.8-16.7,16.6V1.6c0,10.7,5.8,16.5,16.7,16.5h61.3
			c10.9,0,16.7-5.8,16.7-16.5v-20.5h10c8.2,0,13-4.6,13-12.5V-72.2z M97.1-77.3c-0.8,1.6-1.2,3.3-1.2,5.5V0.4c0,4.3-2.2,6.5-6.5,6.5
			H30.1c-4.3,0-6.5-2.2-6.5-6.5v-71.1c0-4.3,2.2-6.6,6.5-6.6H97.1z M118.8-71.3v37.9c0,2-1.3,3.3-3.3,3.3h-8.4v-41.2
			c0-3.6,2.5-6.1,5.9-6.1C116.3-77.3,118.8-74.8,118.8-71.3z"/>
	</g>
	<g id="Medium-M" transform="matrix(1 0 0 1 1676.29 1126)">
		<path d="M128.1-72.5c0-10.1-5.6-15.6-16.1-15.6H28.6c-10.6,0-16.1,5.5-16.1,15.9v74c0,10.4,5.5,15.9,16.1,15.9h61.1
			c10.6,0,16.1-5.5,16.1-15.9V-20h10.7c7.3,0,11.6-4.1,11.6-11.1V-72.5z M97.4-78.4c-0.9,1.8-1.4,3.9-1.4,6.2v73c0,4.7-2.4,7-7,7
			H29.2c-4.6,0-7-2.3-7-7v-72.2c0-4.7,2.4-7,7-7H97.4z M118.4-72v39.2c0,1.9-1.2,3.1-3.2,3.1h-9.5V-72c0-3.8,2.7-6.4,6.3-6.4
			C115.6-78.4,118.4-75.6,118.4-72z"/>
	</g>
	<g id="Regular-M" transform="matrix(1 0 0 1 1380.87 1126)">
		<path d="M125.5-72.9c0-9.7-4.8-14.7-14.7-14.7h-83c-10.3,0-15.3,5-15.3,15.1V2c0,10.1,5.1,15.1,15.3,15.1h60.8
			C98.8,17.1,104,12,104,2v-23.3h11.7c6.2,0,9.9-3.4,9.9-9.2V-72.9z M97.8-79.7c-1.1,2.1-1.7,4.5-1.7,7.4V1.5c0,5.1-2.7,7.7-7.6,7.7
			H27.9c-4.8,0-7.6-2.6-7.6-7.7v-73.6c0-5.1,2.7-7.7,7.6-7.7H97.8z M117.6-72.9V-32c0,1.8-1.1,2.8-2.9,2.8H104v-43.7
			c0-4.1,3-6.9,6.8-6.9C114.6-79.7,117.6-76.8,117.6-72.9z"/>
	</g>
	<g id="Light-M" transform="matrix(1 0 0 1 1085.51 1126)">
		<path d="M122.8-74c0-8.4-4.3-13.2-13.1-13.2H26.9c-9.5,0-14.4,4.8-14.4,14.3V2.6c0,9.5,4.9,14.3,14.4,14.3h61.3
			c9.5,0,14.4-4.8,14.4-14.3v-25H114c5.5,0,8.8-3,8.8-8.2V-74z M98.6-81.2c-1.4,2-2.1,4.5-2.1,7.5v76c0,5.6-3,8.5-8.5,8.5H27
			c-5.5,0-8.5-2.9-8.5-8.5v-74.9c0-5.6,3-8.5,8.5-8.5H98.6z M116.7-74v42.3c0,2-1.3,3.2-3.4,3.2h-10.8V-74c0-4.2,3-7.2,7.1-7.2
			C113.7-81.2,116.7-78.1,116.7-74z"/>
	</g>
	<g id="Thin-M" transform="matrix(1 0 0 1 790.602 1126)">
		<path d="M119.2-75.7c0-6.8-3.7-11.1-11.1-11.1H25.6c-8.6,0-13.1,4.5-13.1,13.1v77c0,8.6,4.5,13.1,13.1,13.1h61.9
			c8.6,0,13.2-4.5,13.2-13.1v-27.4h11c4.7,0,7.5-2.5,7.5-6.9V-75.7z M99.7-83.2c-1.8,1.9-2.6,4.5-2.6,7.6V3.1c0,6.4-3.4,9.7-9.7,9.7
			H25.7c-6.3,0-9.7-3.3-9.7-9.7v-76.6c0-6.4,3.3-9.7,9.7-9.7H99.7z M115.6-75.6v44.1c0,2.3-1.5,3.7-4,3.7h-10.9v-47.9
			c0-4.5,3-7.6,7.4-7.6C112.5-83.2,115.6-80.1,115.6-75.6z"/>
	</g>
	<g id="Ultralight-M" transform="matrix(1 0 0 1 494.794 1126)">
		<path d="M117.4-76.6c0-6-3.4-10-10-10H25c-8.2,0-12.5,4.3-12.5,12.5V3.6c0,8.2,4.3,12.5,12.5,12.5h62.2c8.2,0,12.5-4.3,12.5-12.5
			V-25h10.8c4.2,0,6.8-2.3,6.8-6.3V-76.6z M100.2-84.2c-2,1.8-2.9,4.4-2.9,7.6V3.5c0,6.7-3.5,10.3-10.3,10.3h-62
			c-6.7,0-10.3-3.5-10.3-10.3V-74c0-6.7,3.5-10.3,10.3-10.3H100.2z M115-76.5v45.1c0,2.5-1.6,4-4.3,4H99.8v-49.1
			c0-4.6,3.1-7.7,7.6-7.7C111.9-84.2,115-81.1,115-76.5z"/>
	</g>
	<g id="Black-S" transform="matrix(1 0 0 1 2873.88 696)">
		<path d="M109.3-63.3c0-9.1-6.9-15.2-17.2-15.2H25c-9.6,0-15.2,5.7-15.2,15.2v56.3C9.8,2.5,15.4,8.2,25,8.2h48.7
			C83.3,8.2,89,2.5,89-7.1v-11.5H94c9.6,0,15.2-5.7,15.2-15.2V-63.3z M75-64.4c-0.1,0.3-0.1,0.6-0.1,1.1v54c0,2.2-0.9,3.3-3.3,3.3
			H27.2c-2.4,0-3.3-1.1-3.3-3.3v-51.8c0-2.2,0.9-3.3,3.3-3.3H75z M95.1-61.1v25c0,2-1.3,3.3-3.3,3.3H89v-28.3c0-2,1.2-3.3,3.1-3.3
			C93.9-64.4,95.1-63.1,95.1-61.1z"/>
	</g>
	<g id="Heavy-S" transform="matrix(1 0 0 1 2578.31 696)">
		<path d="M107-63.5c0-8.9-6.2-14.6-16.1-14.6H24.3C15-78,9.8-72.8,9.8-63.5v56.6C9.8,2.3,15,7.7,24.3,7.7h48.4
			c9.3,0,14.6-5.3,14.6-14.6v-12.9h6.1c8.5,0,13.6-5,13.6-13.5V-63.5z M75.2-65.6c-0.2,0.7-0.4,1.3-0.4,2.2v54.7
			c0,2.6-1.1,3.9-3.9,3.9H26.1c-2.7,0-3.9-1.3-3.9-3.9v-53c0-2.6,1.2-3.9,3.9-3.9H75.2z M94.5-61.8v26.5c0,1.9-1.2,3-3,3h-4.2v-29.5
			c0-2.2,1.5-3.8,3.6-3.8C93-65.6,94.5-64,94.5-61.8z"/>
	</g>
	<g id="Bold-S" transform="matrix(1 0 0 1 2282.87 696)">
		<path d="M104.4-63.7c0-8.7-5.5-13.8-14.8-13.8H23.6c-8.9,0-13.8,4.9-13.8,13.8v57c0,8.9,4.9,13.8,13.8,13.8h48.1
			c8.9,0,13.9-4.9,13.9-13.8v-14.5h7.2c7.4,0,11.7-4.2,11.7-11.4V-63.7z M75.6-66.8c-0.4,1-0.7,2.1-0.7,3.4V-8c0,3-1.4,4.5-4.4,4.5
			H24.8c-3,0-4.4-1.5-4.4-4.5v-54.4c0-2.9,1.4-4.4,4.4-4.4H75.6z M93.8-62.5v28.2c0,1.6-1,2.6-2.7,2.6h-5.6v-30.8
			c0-2.5,1.8-4.3,4.1-4.3C92-66.8,93.8-65,93.8-62.5z"/>
	</g>
	<g id="Semibold-S" transform="matrix(1 0 0 1 1987.04 696)">
		<path d="M102.7-63.8c0-8.5-4.9-13.3-13.9-13.3H23.1c-8.7,0-13.3,4.6-13.3,13.2v57.3c0,8.6,4.6,13.2,13.3,13.2h47.9
			c8.7,0,13.3-4.6,13.3-13.2V-22h8c6.5,0,10.4-3.8,10.4-10.1V-63.8z M75.8-67.7c-0.5,1.3-0.8,2.6-0.8,4.2v56c0,3.3-1.6,4.9-4.8,4.9
			H23.9c-3.2,0-4.8-1.6-4.8-4.9v-55.3c0-3.3,1.7-4.9,4.8-4.9H75.8z M93.4-63.1v29.3c0,1.5-0.9,2.4-2.4,2.4h-6.6v-31.7
			c0-2.7,2-4.6,4.5-4.6C91.4-67.7,93.4-65.7,93.4-63.1z"/>
	</g>
	<g id="Medium-S" transform="matrix(1 0 0 1 1690.99 696)">
		<path d="M101.4-63.9c0-8.4-4.5-12.8-13.2-12.8H22.7c-8.5,0-12.9,4.3-12.9,12.8v57.5c0,8.4,4.4,12.8,12.9,12.8h47.7
			c8.5,0,12.9-4.3,12.9-12.8v-16.4h8.5c6,0,9.5-3.3,9.5-9V-63.9z M76-68.4c-0.6,1.5-1,3.1-1,4.9v56.3C75-3.7,73.2-2,69.9-2H23.2
			c-3.3,0-5.1-1.8-5.1-5.2v-56.1c0-3.4,1.8-5.2,5.1-5.2H76z M93.1-63.5v30.2c0,1.4-0.9,2.2-2.3,2.2h-7.4v-32.4
			c0-2.9,2.1-4.9,4.8-4.9C90.9-68.4,93.1-66.3,93.1-63.5z"/>
	</g>
	<g id="Regular-S" transform="matrix(1 0 0 1 1395.16 696)">
		<path d="M99.6-64.1c0-8.3-4-12.4-12.3-12.4H22.2c-8.3,0-12.5,4.1-12.5,12.3v57.8c0,8.2,4.1,12.3,12.5,12.3h47.4
			c8.3,0,12.5-4.1,12.5-12.3v-17.4h9.3c5.2,0,8.3-2.8,8.3-7.7V-64.1z M76.2-69.4c-0.7,1.7-1.1,3.6-1.1,5.8v56.9c0,3.7-2,5.6-5.5,5.6
			H22.3c-3.5,0-5.5-1.9-5.5-5.6v-57c0-3.7,2-5.6,5.5-5.6H76.2z M92.6-64.1v31.3c0,1.3-0.8,2.1-2.1,2.1h-8.4v-33.3
			c0-3.1,2.3-5.3,5.2-5.3C90.2-69.4,92.6-67,92.6-64.1z"/>
	</g>
	<g id="Light-S" transform="matrix(1 0 0 1 1099.64 696)">
		<path d="M97.2-65.2c0-7.1-3.6-10.9-10.9-10.9H21.4c-7.8,0-11.6,3.9-11.6,11.5v58.7c0,7.7,3.9,11.5,11.6,11.5h47.9
			c7.7,0,11.6-3.9,11.6-11.5v-18.9h9c4.6,0,7.3-2.5,7.3-6.8V-65.2z M76.9-70.7c-1,1.6-1.5,3.6-1.5,5.9v58.7c0,4.2-2.2,6.3-6.3,6.3
			H21.5c-4.1,0-6.3-2.1-6.3-6.3v-58.2c0-4.2,2.2-6.4,6.3-6.4H76.9z M91.8-65.2v32.6c0,1.5-0.9,2.4-2.4,2.4h-8.5v-35
			c0-3.2,2.3-5.5,5.5-5.5C89.4-70.7,91.8-68.3,91.8-65.2z"/>
	</g>
	<g id="Thin-S" transform="matrix(1 0 0 1 804.494 696)">
		<path d="M94.1-66.6c0-5.7-3-9.1-9.1-9.1H20.3c-6.9,0-10.5,3.6-10.5,10.5v60c0,6.9,3.6,10.5,10.5,10.5h48.4
			c6.9,0,10.5-3.6,10.5-10.5v-21h8.7c3.9,0,6.2-2.1,6.2-5.7V-66.6z M77.9-72.4c-1.3,1.5-2,3.5-2,5.9v61.2c0,4.8-2.5,7.4-7.4,7.4
			H20.4c-4.8,0-7.3-2.5-7.3-7.4V-65c0-4.8,2.5-7.4,7.3-7.4H77.9z M90.8-66.6v34.2c0,1.8-1.1,2.8-3,2.8h-8.5v-37.1
			c0-3.5,2.4-5.9,5.8-5.9C88.4-72.4,90.8-70,90.8-66.6z"/>
	</g>
	<g id="Ultralight-S" transform="matrix(1 0 0 1 508.588 696)">
		<path d="M92.5-67.3c0-4.9-2.7-8.2-8.1-8.2H19.8c-6.5,0-10,3.5-10,10v60.7c0,6.5,3.5,10,10,10h48.7c6.5,0,10-3.5,10-10v-22.1H87
			c3.5,0,5.5-1.9,5.5-5.1V-67.3z M78.4-73.3c-1.5,1.5-2.2,3.5-2.2,6v62.4c0,5.2-2.7,7.9-7.9,7.9H19.9C14.7,3,12,0.3,12-4.9v-60.4
			c0-5.2,2.7-7.9,7.9-7.9H78.4z M90.3-67.2v35.1c0,1.9-1.3,3-3.3,3h-8.5v-38.1c0-3.6,2.4-6.1,6-6.1C87.9-73.3,90.3-70.8,90.3-67.2z"
			/>
	</g>
</g>
</svg>
