<svg xmlns="http://www.w3.org/2000/svg" xmlns:xlink="http://www.w3.org/1999/xlink" width="499.998" height="500.001" viewBox="0 0 499.998 500.001">
  <defs>
    <linearGradient id="linear-gradient" x1="0.5" x2="0.5" y2="1" gradientUnits="objectBoundingBox">
      <stop offset="0" stop-color="#ea5a57"/>
      <stop offset="1" stop-color="#ea5159"/>
    </linearGradient>
  </defs>
  <path id="Subtraction_122" data-name="Subtraction 122" d="M-8112-9849h-500v-500h500v500Zm-292.876-266.131a14.708,14.708,0,0,0-5.42.964,12.591,12.591,0,0,0-4.344,2.888,12.719,12.719,0,0,0-2.857,4.424,15.56,15.56,0,0,0-.952,5.56,13.687,13.687,0,0,0,3.81,9.94,12.578,12.578,0,0,0,4.344,2.922,14.585,14.585,0,0,0,5.42.974h85.026a14.578,14.578,0,0,0,5.418-.974,12.591,12.591,0,0,0,4.345-2.922,12.919,12.919,0,0,0,2.856-4.434,15.372,15.372,0,0,0,.951-5.507,15.582,15.582,0,0,0-.951-5.56,12.691,12.691,0,0,0-2.856-4.424,12.59,12.59,0,0,0-4.345-2.888,14.705,14.705,0,0,0-5.418-.964Z" transform="translate(8611.999 10349)" fill="url(#linear-gradient)"/>
</svg>
