<svg xmlns="http://www.w3.org/2000/svg" xmlns:xlink="http://www.w3.org/1999/xlink" width="400" height="220" viewBox="0 0 400 220">
  <defs>
    <clipPath id="clip-Artboard_73">
      <rect width="400" height="220"/>
    </clipPath>
  </defs>
  <g id="Artboard_73" data-name="Artboard – 73" clip-path="url(#clip-Artboard_73)">
    <rect width="400" height="220" fill="rgba(255,255,255,0)"/>
    <path id="Path_253" data-name="Path 253" d="M16.8,1.436c5.24,0,8.9-3.374,8.9-9.4v-87.64c0-6.029-3.661-9.4-8.9-9.4s-8.972,3.374-8.972,9.4v87.64C7.824-1.938,11.556,1.436,16.8,1.436Zm33.018,0c5.24,0,8.972-3.374,8.972-9.4v-36.1c0-10.91,6.532-18.3,16.8-18.3,10.192,0,15.217,6.029,15.217,16.8V-7.967c0,6.029,3.732,9.4,8.972,9.4s8.9-3.374,8.9-9.4v-41.2c0-17.585-9.546-28.352-26.342-28.352-11.7,0-19.6,5.24-23.687,14.284h-.359v-5.312c0-5.527-3.589-9.044-8.829-9.044-5.312,0-8.542,3.517-8.542,9.044v60.58C40.913-1.938,44.574,1.436,49.813,1.436Zm76.036-69.653h17.459c3.308,0,5.778-1.968,5.778-5.359s-2.47-5.317-5.778-5.317H125.849c-3.308,0-5.778,1.926-5.778,5.317S122.541-68.217,125.849-68.217Zm51.414,20.1a5.934,5.934,0,0,0,6.238-6.322v-48.818c0-4.354-2.68-7.076-7.159-7.076a11.735,11.735,0,0,0-7.536,2.386l-11.974,8.29c-1.968,1.382-2.721,2.805-2.721,4.731a4.31,4.31,0,0,0,4.438,4.522,5.149,5.149,0,0,0,3.349-1.13l8.834-6.155h.251v43.249A5.966,5.966,0,0,0,177.263-48.121Z" transform="translate(104.176 164.336)" fill="#f4f4f4"/>
  </g>
</svg>
