<svg xmlns="http://www.w3.org/2000/svg" xmlns:xlink="http://www.w3.org/1999/xlink" width="500" height="500.003" viewBox="0 0 500 500.003">
  <defs>
    <linearGradient id="linear-gradient" x1="0.5" x2="0.5" y2="1" gradientUnits="objectBoundingBox">
      <stop offset="0" stop-color="#eb465b"/>
      <stop offset="1" stop-color="#eb3c5d"/>
    </linearGradient>
  </defs>
  <path id="Subtraction_124" data-name="Subtraction 124" d="M-8112-10929h-500v-500h500v500Zm-300.942-237.092a12.184,12.184,0,0,0-6.568,1.925,15.992,15.992,0,0,0-5.034,5.036,12.786,12.786,0,0,0-1.971,6.962,12.7,12.7,0,0,0,1.971,6.829,15.432,15.432,0,0,0,5.034,5.037,12.4,12.4,0,0,0,6.568,1.882h104.2a12.772,12.772,0,0,0,6.7-1.882,14.56,14.56,0,0,0,4.992-5.037,13.139,13.139,0,0,0,1.882-6.829,13.228,13.228,0,0,0-1.882-6.961,15.051,15.051,0,0,0-4.992-5.037,12.556,12.556,0,0,0-6.7-1.925Zm0-61.3a12.372,12.372,0,0,0-6.568,1.885,15.386,15.386,0,0,0-5.034,5.034,12.863,12.863,0,0,0-1.971,6.918,12.633,12.633,0,0,0,1.971,6.873,15.992,15.992,0,0,0,5.034,5.036,12.165,12.165,0,0,0,6.568,1.925h104.2a12.537,12.537,0,0,0,6.7-1.925,15.048,15.048,0,0,0,4.992-5.036,13.072,13.072,0,0,0,1.882-6.873,13.313,13.313,0,0,0-1.882-6.918,14.519,14.519,0,0,0-4.992-5.034,12.752,12.752,0,0,0-6.7-1.885Z" transform="translate(8612 11429.001)" fill="url(#linear-gradient)"/>
</svg>
