<svg xmlns="http://www.w3.org/2000/svg" xmlns:xlink="http://www.w3.org/1999/xlink" width="400" height="220" viewBox="0 0 400 220">
  <defs>
    <clipPath id="clip-Artboard_64">
      <rect width="400" height="220"/>
    </clipPath>
  </defs>
  <g id="Artboard_64" data-name="Artboard – 64" clip-path="url(#clip-Artboard_64)">
    <rect width="400" height="220" fill="rgba(255,255,255,0)"/>
    <path id="Path_257" data-name="Path 257" d="M46.009,15.576A8.525,8.525,0,0,0,57.35,13.063l81.108-121.017c2.943-4.378,1.579-9.331-2.225-11.556-3.517-1.938-8.111-1.148-11.054,3.086L44.071,4.235C41.057,8.685,42.277,13.351,46.009,15.576ZM46.081-50.6c17.227,0,27.778-13.207,27.778-34.6,0-21.533-10.695-34.31-27.778-34.31C29.07-119.509,18.3-106.661,18.3-85.2,18.3-63.667,29-50.6,46.081-50.6Zm0-13.207C38.688-63.81,34.6-71.347,34.6-85.2c0-13.638,4.163-21.1,11.484-21.1,7.393,0,11.556,7.393,11.556,21.1C57.637-71.347,53.474-63.81,46.081-63.81Zm90.224,79.745c17.155,0,27.778-13.207,27.778-34.6,0-21.533-10.695-34.381-27.778-34.381-17.011,0-27.778,12.848-27.778,34.381C108.527,2.8,119.15,15.935,136.305,15.935Zm0-13.207c-7.393,0-11.484-7.537-11.484-21.39,0-13.638,4.091-21.174,11.484-21.174s11.556,7.465,11.556,21.174C147.861-4.809,143.7,2.728,136.305,2.728Z" transform="translate(108.696 161.512)" fill="#1d1d1d"/>
  </g>
</svg>
