<svg xmlns="http://www.w3.org/2000/svg" xmlns:xlink="http://www.w3.org/1999/xlink" width="300" height="170" viewBox="0 0 300 170">
  <defs>
    <clipPath id="clip-Artboard_74">
      <rect width="300" height="170"/>
    </clipPath>
  </defs>
  <g id="Artboard_74" data-name="Artboard – 74" clip-path="url(#clip-Artboard_74)">
    <rect width="300" height="170" fill="rgba(255,255,255,0)"/>
    <path id="Path_254" data-name="Path 254" d="M16.8,1.436c5.24,0,8.9-3.374,8.9-9.4v-87.64c0-6.029-3.661-9.4-8.9-9.4s-8.972,3.374-8.972,9.4v87.64C7.824-1.938,11.556,1.436,16.8,1.436Zm33.018,0c5.24,0,8.972-3.374,8.972-9.4v-36.1c0-10.91,6.532-18.3,16.8-18.3,10.192,0,15.217,6.029,15.217,16.8V-7.967c0,6.029,3.732,9.4,8.972,9.4s8.9-3.374,8.9-9.4v-41.2c0-17.585-9.546-28.352-26.342-28.352-11.7,0-19.6,5.24-23.687,14.284h-.359v-5.312c0-5.527-3.589-9.044-8.829-9.044-5.312,0-8.542,3.517-8.542,9.044v60.58C40.913-1.938,44.574,1.436,49.813,1.436Z" transform="translate(92.176 136.867)" fill="#f4f4f4"/>
  </g>
</svg>
