<svg xmlns="http://www.w3.org/2000/svg" xmlns:xlink="http://www.w3.org/1999/xlink" width="500" height="500.003" viewBox="0 0 500 500.003">
  <defs>
    <linearGradient id="linear-gradient" x1="0.5" x2="0.5" y2="1" gradientUnits="objectBoundingBox">
      <stop offset="0" stop-color="#e96555"/>
      <stop offset="1" stop-color="#ea5b57"/>
    </linearGradient>
  </defs>
  <path id="Subtraction_121" data-name="Subtraction 121" d="M-8112-9311h-500v-500h500v500Zm-252.956-233.345,38.177,38.18a12.808,12.808,0,0,0,6.087,3.415,14.459,14.459,0,0,0,3.462.429,14.524,14.524,0,0,0,3.629-.471,13.378,13.378,0,0,0,6.176-3.546,12.763,12.763,0,0,0,3.59-6.22,15.169,15.169,0,0,0,.042-7.135,12.228,12.228,0,0,0-3.457-6.087l-38.118-38.152,38.118-38.118a12.735,12.735,0,0,0,3.457-6.131,15,15,0,0,0-.042-7.094,12.736,12.736,0,0,0-3.59-6.215,13.364,13.364,0,0,0-6.176-3.548,14.507,14.507,0,0,0-3.632-.472,14.439,14.439,0,0,0-3.459.428,12.84,12.84,0,0,0-6.087,3.415l-38.152,38.154-38.2-38.241a12.612,12.612,0,0,0-6-3.328,14.911,14.911,0,0,0-3.569-.437,15.443,15.443,0,0,0-3.612.438,13.062,13.062,0,0,0-6.262,3.5,13.615,13.615,0,0,0-3.5,6.3,14.855,14.855,0,0,0,0,7.138,12.626,12.626,0,0,0,3.327,6l38.224,38.224-38.224,38.225a12.626,12.626,0,0,0-3.327,6,14.843,14.843,0,0,0,0,7.135,13.066,13.066,0,0,0,3.5,6.22,12.468,12.468,0,0,0,6.262,3.546,16.263,16.263,0,0,0,3.612.415,15.7,15.7,0,0,0,3.569-.415,12,12,0,0,0,6-3.373l38.18-38.18Z" transform="translate(8612 9811.001)" fill="url(#linear-gradient)"/>
</svg>
