<svg xmlns="http://www.w3.org/2000/svg" xmlns:xlink="http://www.w3.org/1999/xlink" width="500" height="500.001" viewBox="0 0 500 500.001">
  <defs>
    <linearGradient id="linear-gradient" x1="0.5" x2="0.5" y2="1" gradientUnits="objectBoundingBox">
      <stop offset="0" stop-color="#ea5059"/>
      <stop offset="1" stop-color="#eb465b"/>
    </linearGradient>
  </defs>
  <path id="Subtraction_123" data-name="Subtraction 123" d="M-8112-10389h-500v-500h500v500Zm-292.88-266.258a14.547,14.547,0,0,0-5.417.974,12.565,12.565,0,0,0-4.345,2.921,12.935,12.935,0,0,0-2.857,4.435,15.343,15.343,0,0,0-.952,5.507,15.342,15.342,0,0,0,.952,5.506,12.911,12.911,0,0,0,2.857,4.431,13.111,13.111,0,0,0,9.762,3.9h28.722v26.97a14.643,14.643,0,0,0,.963,5.408,12.426,12.426,0,0,0,2.89,4.313,13.744,13.744,0,0,0,9.983,3.766,15.484,15.484,0,0,0,5.506-.942,12.973,12.973,0,0,0,4.433-2.823,12.416,12.416,0,0,0,2.923-4.312,14.493,14.493,0,0,0,.975-5.408v-26.97h28.634a14.549,14.549,0,0,0,5.419-.976,12.591,12.591,0,0,0,4.346-2.924,12.937,12.937,0,0,0,2.855-4.431,15.371,15.371,0,0,0,.951-5.506,13.7,13.7,0,0,0-3.807-9.941,12.6,12.6,0,0,0-4.346-2.921,14.561,14.561,0,0,0-5.419-.974h-28.634v-26.71a12.972,12.972,0,0,0-3.9-9.718,12.933,12.933,0,0,0-4.433-2.824,15.485,15.485,0,0,0-5.506-.941,15.7,15.7,0,0,0-5.561.941,12.694,12.694,0,0,0-4.423,2.824,13.04,13.04,0,0,0-3.853,9.718v26.71Z" transform="translate(8612 10889.001)" fill="url(#linear-gradient)"/>
</svg>
