<svg xmlns="http://www.w3.org/2000/svg" xmlns:xlink="http://www.w3.org/1999/xlink" width="400" height="220" viewBox="0 0 400 220">
  <defs>
    <clipPath id="clip-Artboard_70">
      <rect width="400" height="220"/>
    </clipPath>
  </defs>
  <g id="Artboard_70" data-name="Artboard – 70" clip-path="url(#clip-Artboard_70)">
    <rect width="400" height="220" fill="rgba(255,255,255,0)"/>
    <path id="Path_265" data-name="Path 265" d="M12.274-18.806C12.274-5.814,19.021.79,32.3.79h.718C41.2.79,45.794-2.01,45.794-7.25c0-4.163-2.44-6.173-7.178-6.6L37.324-14c-5.168-.431-7.178-2.943-7.178-8.685V-62.3H38.4c4.45,0,7.178-2.656,7.178-6.962,0-4.235-2.728-6.819-7.178-6.819H30.146V-86.2c0-5.742-3.445-9.331-8.9-9.331-5.527,0-8.972,3.589-8.972,9.331v10.121H7.465c-4.45,0-7.178,2.584-7.178,6.819,0,4.307,2.728,6.962,7.178,6.962h4.809ZM77.95,1.22c9.833,0,19.38-5.1,23.758-13.351h.359v5.312c.287,5.312,3.661,8.254,8.542,8.254,5.024,0,8.685-3.23,8.685-8.972V-52.4c0-15.289-12.274-25.266-31.151-25.266-14.571,0-26.342,5.6-30.218,14.427a11.15,11.15,0,0,0-1.22,4.881c0,4.307,3.158,7.178,7.537,7.178a8.594,8.594,0,0,0,7.25-3.589c4.45-6.532,8.972-8.9,15.935-8.9,8.829,0,14.212,4.594,14.212,12.561v5.455L81.467-44.5c-18.519,1.148-28.926,9.259-28.926,22.753C52.541-8.039,63.236,1.22,77.95,1.22Zm5.455-13.494c-7.752,0-12.992-3.948-12.992-10.192,0-6.029,4.953-9.905,13.566-10.479l17.657-1.077v5.814C101.637-19.021,93.454-12.274,83.405-12.274ZM142.55,1.436c5.24,0,8.972-3.374,8.972-9.4v-36.1c0-10.91,6.532-18.3,16.8-18.3,10.192,0,15.217,6.029,15.217,16.8V-7.967c0,6.029,3.732,9.4,8.972,9.4s8.9-3.374,8.9-9.4v-41.2c0-17.585-9.546-28.352-26.342-28.352-11.7,0-19.6,5.24-23.687,14.284h-.359v-5.312c0-5.527-3.589-9.044-8.829-9.044-5.312,0-8.542,3.517-8.542,9.044v60.58C133.649-1.938,137.31,1.436,142.55,1.436Z" transform="translate(98.713 157.536)" fill="#1d1d1d"/>
  </g>
</svg>
