<svg xmlns="http://www.w3.org/2000/svg" xmlns:xlink="http://www.w3.org/1999/xlink" width="297" height="162" viewBox="0 0 297 162">
  <defs>
    <clipPath id="clip-Artboard_3">
      <rect width="297" height="162"/>
    </clipPath>
  </defs>
  <g id="Artboard_3" data-name="Artboard – 3" clip-path="url(#clip-Artboard_3)">
    <rect width="297" height="162" fill="rgba(255,255,255,0)"/>
    <path id="Path_263" data-name="Path 263" d="M48.952,22.682h65.963q8.326,0,13.351-4.737t5.383-13.063L138.53-98.479h7.9a6.243,6.243,0,0,0,4.594-1.866,6.243,6.243,0,0,0,1.866-4.594,6.125,6.125,0,0,0-1.866-4.558,6.307,6.307,0,0,0-4.594-1.83H17.442a6.278,6.278,0,0,0-4.558,1.866,6.1,6.1,0,0,0-1.9,4.522,6.183,6.183,0,0,0,1.9,4.594,6.278,6.278,0,0,0,4.558,1.866h7.9L30.146,4.881q.431,8.4,5.419,13.1T48.952,22.682Zm1.436-12.92a6.5,6.5,0,0,1-4.881-2.01,7.666,7.666,0,0,1-2.082-5.168L38.544-98.479h86.492L120.442,2.584a7.536,7.536,0,0,1-2.117,5.2,6.761,6.761,0,0,1-4.989,1.974ZM60.8-1.794a5.023,5.023,0,0,0,3.661-1.328A4.42,4.42,0,0,0,65.748-6.6L63.595-81.683a4.607,4.607,0,0,0-1.471-3.374A5.133,5.133,0,0,0,58.5-86.348a4.8,4.8,0,0,0-3.553,1.328,4.616,4.616,0,0,0-1.328,3.409L55.843-6.532a4.463,4.463,0,0,0,1.4,3.445A5.034,5.034,0,0,0,60.8-1.794Zm21.174,0a5.051,5.051,0,0,0,3.625-1.328,4.491,4.491,0,0,0,1.4-3.409V-81.611a4.463,4.463,0,0,0-1.4-3.445,5.133,5.133,0,0,0-3.625-1.292,5.234,5.234,0,0,0-3.7,1.292,4.463,4.463,0,0,0-1.4,3.445V-6.532a4.491,4.491,0,0,0,1.4,3.409A5.149,5.149,0,0,0,81.97-1.794Zm21.1,0a5.034,5.034,0,0,0,3.553-1.292,4.463,4.463,0,0,0,1.4-3.445l2.225-75.079a4.616,4.616,0,0,0-1.328-3.409,4.9,4.9,0,0,0-3.625-1.328,5.034,5.034,0,0,0-3.553,1.292,4.69,4.69,0,0,0-1.471,3.445L98.12-6.6a4.42,4.42,0,0,0,1.292,3.481A5.023,5.023,0,0,0,103.072-1.794ZM49.239-106.589H62.662v-14.786a5.723,5.723,0,0,1,1.759-4.378,6.591,6.591,0,0,1,4.7-1.651H94.6a6.591,6.591,0,0,1,4.7,1.651,5.723,5.723,0,0,1,1.759,4.378v14.786h13.494v-15.432q0-8.254-5.024-12.92t-14-4.666H68.26q-9.044,0-14.032,4.666t-4.989,12.92Z" transform="translate(66.566 139.607)" fill="#1d1d1d"/>
  </g>
</svg>
