<svg xmlns="http://www.w3.org/2000/svg" xmlns:xlink="http://www.w3.org/1999/xlink" width="297" height="162" viewBox="0 0 297 162">
  <defs>
    <clipPath id="clip-Artboard_108">
      <rect width="297" height="162"/>
    </clipPath>
  </defs>
  <g id="Artboard_108" data-name="Artboard – 108" clip-path="url(#clip-Artboard_108)">
    <rect width="297" height="162" fill="rgba(255,255,255,0)"/>
    <path id="Path_261" data-name="Path 261" d="M50.029,10.551c9.69,0,14.571-5.814,17.3-14.212L97.4-97.976h70.7c5.742,0,9.475-3.732,9.475-9.259,0-5.455-3.732-9.187-9.475-9.187H96.828c-10.264,0-14.786,4.091-17.657,13.207l-28.065,91.8H49.455L37.109-54.838c-1.507-5.24-4.307-7.824-9.4-7.824-5.6,0-9.4,3.948-9.4,9.044a18.263,18.263,0,0,0,1,5.455l14,45C35.96,5.1,40.77,10.551,50.029,10.551Zm61.3-12.7c3.3,0,5.1-1.22,7.68-5.024l13.781-20.1h.431l13.638,20.1c2.44,3.8,4.307,5.024,7.608,5.024,4.522,0,7.68-2.943,7.68-7.178a8.515,8.515,0,0,0-2.082-5.6L143.2-37.611l16.939-22.9a8.505,8.505,0,0,0,2.153-5.6c0-4.02-3.158-6.962-7.465-6.962-3.3,0-5.24,1.22-7.537,4.809L134.008-48.091h-.5L119.8-68.26c-2.369-3.661-4.235-4.809-7.608-4.809-4.378,0-7.68,3.086-7.68,7.178a9.175,9.175,0,0,0,2.225,5.886L123.026-37.9,106.015-14.643a8.34,8.34,0,0,0-2.082,5.527C103.934-5.1,107.02-2.153,111.327-2.153Z" transform="translate(50.56 133.936)" fill="#f4f4f4"/>
  </g>
</svg>
