<svg xmlns="http://www.w3.org/2000/svg" xmlns:xlink="http://www.w3.org/1999/xlink" width="499.999" height="500" viewBox="0 0 499.999 500">
  <defs>
    <linearGradient id="linear-gradient" x1="0.5" x2="0.5" y2="1" gradientUnits="objectBoundingBox">
      <stop offset="0" stop-color="#e96f53"/>
      <stop offset="1" stop-color="#e96654"/>
    </linearGradient>
  </defs>
  <path id="Subtraction_120" data-name="Subtraction 120" d="M-8112-8771h-500v-500h500v500Zm-247.448-218.114a18.258,18.258,0,0,0-6.765,1.227,16.818,16.818,0,0,0-5.581,3.678,16.364,16.364,0,0,0-3.745,5.518,17.794,17.794,0,0,0-1.248,6.742,17.919,17.919,0,0,0,1.248,6.787,15.912,15.912,0,0,0,3.745,5.473,16.855,16.855,0,0,0,5.581,3.612,18.551,18.551,0,0,0,6.765,1.2,18.724,18.724,0,0,0,6.786-1.2,17.256,17.256,0,0,0,5.647-3.612,15.9,15.9,0,0,0,3.81-5.473,17.638,17.638,0,0,0,1.27-6.787,17.514,17.514,0,0,0-1.27-6.742,16.352,16.352,0,0,0-3.81-5.518,17.224,17.224,0,0,0-5.647-3.678A18.428,18.428,0,0,0-8359.449-8989.114Zm-53.494-49.649a12.385,12.385,0,0,0-6.567,1.882,15.476,15.476,0,0,0-5.035,5.035,12.874,12.874,0,0,0-1.972,6.92,12.855,12.855,0,0,0,1.972,6.917,15.476,15.476,0,0,0,5.035,5.035,12.385,12.385,0,0,0,6.567,1.882h107.076a12.927,12.927,0,0,0,6.787-1.882,14.213,14.213,0,0,0,4.946-5.035,13.536,13.536,0,0,0,1.838-6.917,13.557,13.557,0,0,0-1.838-6.92,14.2,14.2,0,0,0-4.946-5.035,12.927,12.927,0,0,0-6.787-1.882Zm53.494-54.817a18.093,18.093,0,0,0-6.765,1.237,16.793,16.793,0,0,0-5.581,3.709,16.5,16.5,0,0,0-3.745,5.571,18.176,18.176,0,0,0-1.248,6.82,17.55,17.55,0,0,0,1.248,6.711,15.812,15.812,0,0,0,3.745,5.419,16.841,16.841,0,0,0,5.581,3.578,18.686,18.686,0,0,0,6.765,1.193,18.864,18.864,0,0,0,6.786-1.193,17.265,17.265,0,0,0,5.647-3.578,15.8,15.8,0,0,0,3.81-5.419,17.275,17.275,0,0,0,1.27-6.711,17.89,17.89,0,0,0-1.27-6.82,16.49,16.49,0,0,0-3.81-5.571,17.222,17.222,0,0,0-5.647-3.709A18.261,18.261,0,0,0-8359.449-9093.581Z" transform="translate(8612 9271)" fill="url(#linear-gradient)"/>
</svg>
