<svg xmlns="http://www.w3.org/2000/svg" xmlns:xlink="http://www.w3.org/1999/xlink" width="400" height="220" viewBox="0 0 400 220">
  <defs>
    <clipPath id="clip-Artboard_4">
      <rect width="400" height="220"/>
    </clipPath>
  </defs>
  <g id="Artboard_4" data-name="Artboard – 4" clip-path="url(#clip-Artboard_4)">
    <rect width="400" height="220" fill="rgba(255,255,255,0)"/>
    <path id="Path_251" data-name="Path 251" d="M40.77,1.507c14.355,0,26.988-7.393,31.223-17.8a12.065,12.065,0,0,0,1.077-4.594c0-4.45-3.3-7.321-7.537-7.321-3.876,0-5.814,1.507-8.254,5.527-3.445,6.1-8.326,9.762-16.222,9.762-11.341,0-18.734-9.331-18.734-25.122,0-15.576,7.321-25.122,18.806-25.122,7.393,0,12.417,3.3,16.222,10.264,2.082,3.589,4.235,5.1,7.824,5.1,4.307,0,7.68-2.728,7.68-7.178a12.611,12.611,0,0,0-.933-4.307C68.26-69.983,55.556-77.663,40.626-77.663c-22.179,0-36.463,15.432-36.463,39.693C4.163-13.566,18.519,1.507,40.77,1.507Zm77.95,0c22.323,0,36.822-14.858,36.822-39.549,0-24.62-14.643-39.621-36.822-39.621S81.9-62.59,81.9-38.042C81.9-13.351,96.4,1.507,118.72,1.507Zm0-14.14c-11.341,0-18.662-9.187-18.662-25.409,0-16.15,7.393-25.409,18.662-25.409,11.341,0,18.662,9.259,18.662,25.409C137.382-21.82,130.061-12.633,118.72-12.633Zm77.663,14.14c19.38,0,32.443-9.546,32.443-24.117,0-11.269-6.388-17.083-22.466-20.744l-12.13-2.656c-7.9-1.794-11.2-4.809-11.2-9.259,0-5.455,5.383-9.259,13.207-9.259,7.537,0,11.915,3.3,15.432,8.542a8.01,8.01,0,0,0,6.819,3.3c4.522,0,6.891-2.656,6.891-6.388a11.777,11.777,0,0,0-.359-2.656c-2.369-8.757-13.709-15.935-28.352-15.935-18.806,0-31.008,9.259-31.008,23.4,0,11.054,7.321,18.375,22.179,21.749l12.346,2.8c7.824,1.794,10.695,4.307,10.695,8.9,0,5.742-5.527,9.259-13.853,9.259-8.542,0-13.135-2.584-17.155-8.4-2.3-3.015-4.809-4.378-7.752-4.378-4.307,0-7.465,2.728-7.465,7.034a9.605,9.605,0,0,0,.718,3.517C169.036-4.666,180.3,1.507,196.383,1.507ZM242.99-68.217h17.459c3.308,0,5.778-1.968,5.778-5.359s-2.47-5.317-5.778-5.317H242.99c-3.308,0-5.778,1.926-5.778,5.317S239.682-68.217,242.99-68.217Zm51.414,20.1a5.934,5.934,0,0,0,6.238-6.322v-48.818c0-4.354-2.68-7.076-7.159-7.076a11.735,11.735,0,0,0-7.536,2.386l-11.974,8.29c-1.968,1.382-2.721,2.805-2.721,4.731a4.31,4.31,0,0,0,4.438,4.522,5.149,5.149,0,0,0,3.349-1.13l8.834-6.155h.251v43.249A5.966,5.966,0,0,0,294.4-48.121Z" transform="translate(47.837 164.336)" fill="#1d1d1d"/>
  </g>
</svg>
