<svg xmlns="http://www.w3.org/2000/svg" xmlns:xlink="http://www.w3.org/1999/xlink" width="300" height="170" viewBox="0 0 300 170">
  <defs>
    <clipPath id="clip-Artboard_26">
      <rect width="300" height="170"/>
    </clipPath>
  </defs>
  <g id="Artboard_26" data-name="Artboard – 26" clip-path="url(#clip-Artboard_26)">
    <rect width="300" height="170" fill="rgba(255,255,255,0)"/>
    <path id="Path_256" data-name="Path 256" d="M94.244-49.024l39.908-59.145a8.806,8.806,0,0,0,1.794-5.1c0-3.732-3.158-6.46-6.962-6.46-3.445,0-5.168,1.148-7.537,4.666L81.324-55.2,40.841,4.45a8.814,8.814,0,0,0-1.723,5.24c0,3.948,3.374,6.46,7.321,6.46,3.015,0,4.809-1.22,7.106-4.522ZM18.3-83.477a6.556,6.556,0,0,0,6.532,6.532H37.97V-63.81a6.571,6.571,0,0,0,6.6,6.532,6.51,6.51,0,0,0,6.532-6.532V-76.945H64.241a6.51,6.51,0,0,0,6.532-6.532,6.465,6.465,0,0,0-6.532-6.532H51.105v-13.207a6.571,6.571,0,0,0-6.532-6.6,6.586,6.586,0,0,0-6.6,6.6v13.207H24.835A6.51,6.51,0,0,0,18.3-83.477Zm86.061,68.188A6.556,6.556,0,0,0,110.9-8.757H150.3a6.51,6.51,0,0,0,6.532-6.532A6.51,6.51,0,0,0,150.3-21.82H110.9A6.556,6.556,0,0,0,104.364-15.289Z" transform="translate(62.697 136.581)" fill="#1d1d1d"/>
  </g>
</svg>
