<svg xmlns="http://www.w3.org/2000/svg" xmlns:xlink="http://www.w3.org/1999/xlink" width="400" height="220" viewBox="0 0 400 220">
  <defs>
    <clipPath id="clip-Artboard_79">
      <rect width="400" height="220"/>
    </clipPath>
  </defs>
  <g id="Artboard_79" data-name="Artboard – 79" clip-path="url(#clip-Artboard_79)">
    <rect width="400" height="220" fill="rgba(255,255,255,0)"/>
    <path id="Path_258" data-name="Path 258" d="M36.678,1.507c19.38,0,32.443-9.546,32.443-24.117,0-11.269-6.388-17.083-22.466-20.744l-12.13-2.656c-7.9-1.794-11.2-4.809-11.2-9.259,0-5.455,5.383-9.259,13.207-9.259,7.537,0,11.915,3.3,15.432,8.542a8.01,8.01,0,0,0,6.819,3.3c4.522,0,6.891-2.656,6.891-6.388a11.777,11.777,0,0,0-.359-2.656c-2.369-8.757-13.709-15.935-28.352-15.935-18.806,0-31.008,9.259-31.008,23.4,0,11.054,7.321,18.375,22.179,21.749l12.346,2.8c7.824,1.794,10.695,4.307,10.695,8.9,0,5.742-5.527,9.259-13.853,9.259-8.542,0-13.135-2.584-17.155-8.4-2.3-3.015-4.809-4.378-7.752-4.378-4.307,0-7.465,2.728-7.465,7.034a9.605,9.605,0,0,0,.718,3.517C9.331-4.666,20.6,1.507,36.678,1.507ZM89.722-86.779a9.761,9.761,0,0,0,9.977-9.69,9.716,9.716,0,0,0-9.977-9.69,9.7,9.7,0,0,0-9.905,9.69A9.744,9.744,0,0,0,89.722-86.779Zm0,88.214c5.455,0,8.972-3.589,8.972-9.4V-68.117c0-5.814-3.517-9.475-8.972-9.475s-8.9,3.661-8.9,9.4V-7.967C80.821-2.153,84.267,1.436,89.722,1.436Zm32.874,0c5.24,0,8.972-3.374,8.972-9.4v-36.1c0-10.91,6.532-18.3,16.8-18.3,10.192,0,15.217,6.029,15.217,16.8V-7.967c0,6.029,3.732,9.4,8.972,9.4s8.9-3.374,8.9-9.4v-41.2c0-17.585-9.546-28.352-26.342-28.352-11.7,0-19.6,5.24-23.687,14.284h-.359v-5.312c0-5.527-3.589-9.044-8.829-9.044-5.312,0-8.542,3.517-8.542,9.044v60.58C113.7-1.938,117.356,1.436,122.6,1.436Zm76.036-69.653H216.09c3.308,0,5.778-1.968,5.778-5.359s-2.47-5.317-5.778-5.317H198.631c-3.308,0-5.778,1.926-5.778,5.317S195.324-68.217,198.631-68.217Zm51.414,20.1a5.934,5.934,0,0,0,6.238-6.322v-48.818c0-4.354-2.68-7.076-7.159-7.076a11.735,11.735,0,0,0-7.536,2.386l-11.974,8.29c-1.968,1.382-2.721,2.805-2.721,4.731a4.31,4.31,0,0,0,4.438,4.522,5.149,5.149,0,0,0,3.349-1.13l8.834-6.155h.251v43.249A5.966,5.966,0,0,0,250.045-48.121Z" transform="translate(69.046 164.336)" fill="#f4f4f4"/>
  </g>
</svg>
