<svg xmlns="http://www.w3.org/2000/svg" xmlns:xlink="http://www.w3.org/1999/xlink" width="300" height="170" viewBox="0 0 300 170">
  <defs>
    <clipPath id="clip-Artboard_24">
      <rect width="300" height="170"/>
    </clipPath>
  </defs>
  <g id="Artboard_24" data-name="Artboard – 24" clip-path="url(#clip-Artboard_24)">
    <rect width="300" height="170" fill="rgba(255,255,255,0)"/>
    <path id="Path_255" data-name="Path 255" d="M16.8,1.436c5.24,0,8.9-3.374,8.9-9.4v-87.64c0-6.029-3.661-9.4-8.9-9.4s-8.972,3.374-8.972,9.4v87.64C7.824-1.938,11.556,1.436,16.8,1.436Zm57.781.072C96.9,1.507,111.4-13.351,111.4-38.042c0-24.62-14.643-39.621-36.822-39.621S37.755-62.59,37.755-38.042C37.755-13.351,52.254,1.507,74.577,1.507Zm0-14.14c-11.341,0-18.662-9.187-18.662-25.409,0-16.15,7.393-25.409,18.662-25.409,11.341,0,18.662,9.259,18.662,25.409C93.239-21.82,85.917-12.633,74.577-12.633Zm81.108,41.272c23.471.144,37.468-11.915,37.468-31.08V-68.476c0-5.886-3.732-9.116-8.9-9.116-5.1,0-8.972,3.23-8.972,9.116v5.312h-.287c-4.378-8.613-12.776-14.212-23.615-14.212-19.6,0-31.654,14.571-31.654,38.4,0,23.4,12.2,38.186,31.295,38.186,10.91,0,19.882-5.527,23.83-13.709h.359v12.13c0,10.121-7.25,16.939-19.38,16.8-7.25-.072-12.561-2.943-18.519-8.9-2.225-2.153-4.02-3.015-6.532-3.015-4.522,0-7.465,2.943-7.465,6.891a10.053,10.053,0,0,0,1.507,5.383C129.917,22.969,141.114,28.567,155.685,28.639Zm.79-43.354c-11.269,0-18.447-9.044-18.447-24.117,0-14.93,7.178-24.4,18.447-24.4,11.413,0,18.877,9.618,18.877,24.4C175.352-23.974,167.887-14.714,156.475-14.714Z" transform="translate(49.176 122.867)" fill="#1d1d1d"/>
  </g>
</svg>
